<svg width="50" height="50" viewBox="0 0 50 50" xmlns="http://www.w3.org/2000/svg">
  <defs>
    <path id="o-root-shape" d="
      M 0 0
      m 25 25

      m  0 -11.25
        a 11.25 11.25 0 0 1 0 22.5
        a 11.25 11.25 0 0 1 0 -22.5
      m  0 11.25

      m  0 -18.75
        a 18.75 18.75 0 0 1 0 37.5
        a 18.75 18.75 0 0 1 0 -37.5
    " />

    <path id="o-node-shape" d="
      M 0 0
      m 25 25

      m  0 -15
        a 15 15 0 0 1 0 30
        a 15 15 0 0 1 0 -30
    " />

    <path id="x-root-shape" d="
      M 0 0
      m 10 10

      m -2.8 2.5
        l 12.5 12.5
        l -12.5 12.5
      m 2.8 -27.5

      m 2.5 -2.8
        l 12.5 12.5
        l 12.5 -12.5
      m -27.5 2.8

      m 30 30

      m 2.8 -2.5
        l -12.5 -12.5
        l 12.5 -12.5
      m -2.8 27.5

      m -2.5 2.8
        l -12.5 -12.5
        l -12.5 12.5
    " />

    <path id="x-node-shape" d="
      M 0 0
      m 10 10

      l 30 30
      m 0 -30
      l -30 30
    " />

    <path id="d-root-shape" d="
      M 0 0
      m 25 25
      
      m 0 -17.5
        l 20 32.5
        l -40 0
        z
      m 0 17.5

      m 0 -5
        l 7.5 12.5
        l -15 0
        z
    " />

    <path id="d-node-shape" d="
      M 0 0
      m 25 25

      m 0 -12.5
        l 15 25
        l -30 0
        z
    " />

    <path id="r-root-shape" d="
      M 0 0
      m 10 10
      
      m -2.5 -2.5
        l 0 35
        l 35 0
        l 0 -35
        z
      m 2.5 2.5

      m 5 5
        l 0 20
        l 20 0
        l 0 -20
        z
    " />

    <path id="r-node-shape" d="
      M 0 0
      m 10 10

      l 0 30
      l 30 0
      l 0 -30
      z
    " />
  </defs>

  <use href="#o-root-shape" id="o-destroyed-root" class="o destroyed root mark" />
  <use href="#o-root-shape" id="o-root" class="o root mark" />
  <use href="#o-node-shape" id="o-disabled-node" class="o disabled node mark" />
  <use href="#o-node-shape" id="o-destroyed-node" class="o destroyed node mark" />
  <use href="#o-node-shape" id="o-node" class="o node mark" />

  <use href="#x-root-shape" id="x-destroyed-root" class="x destroyed root mark" />
  <use href="#x-root-shape" id="x-root" class="x root mark" />
  <use href="#x-node-shape" id="x-disabled-node" class="x disabled node mark" />
  <use href="#x-node-shape" id="x-destroyed-node" class="x destroyed node mark" />
  <use href="#x-node-shape" id="x-node" class="x node mark" />

  <use href="#d-root-shape" id="d-destroyed-root" class="d destroyed root mark" />
  <use href="#d-root-shape" id="d-root" class="d root mark" />
  <use href="#d-node-shape" id="d-disabled-node" class="d disabled node mark" />
  <use href="#d-node-shape" id="d-destroyed-node" class="d destroyed node mark" />
  <use href="#d-node-shape" id="d-node" class="d node mark" />

  <use href="#r-root-shape" id="r-destroyed-root" class="r destroyed root mark" />
  <use href="#r-root-shape" id="r-root" class="r root mark" />
  <use href="#r-node-shape" id="r-disabled-node" class="r disabled node mark" />
  <use href="#r-node-shape" id="r-destroyed-node" class="r destroyed node mark" />
  <use href="#r-node-shape" id="r-node" class="r node mark" />

  <style>
    .mark:not(:target) {
      display: none;
    }

    .mark {
      fill: none;
    }

    .root.mark {
      stroke-width: 2.5;
    }

    .node.mark {
      stroke-width: 6;
    }

    .o.mark {
      stroke: rgb(220, 20, 60)
    }

    .x.mark {
      stroke: rgb(65, 105, 225);
    }

    .d.mark {
      stroke: rgb(255, 140, 0);
    }

    .r.mark {
      stroke: rgb(46, 139, 87);
    }

    .disabled.mark {
      stroke: rgb(128, 128, 128);
    }

    .destroyed.mark {
      stroke: rgba(128, 128, 128, 0.4);
    }
  </style>
</svg>