<svg width="5" height="5" viewBox="0 0 5 5" xmlns="http://www.w3.org/2000/svg"
  xmlns:xlink="http://www.w3.org/1999/xlink">
  <defs>
    <path id="root-path" d="
      M 0 0 m 1 1

      m -0.03 0
        m -0.25 0.25
          l 1.25 1.25
          l -1.25 1.25
        m 0.25 -2.75
      m 0.03 0

      m 0 -0.03
        m 0.25 -0.25
          l 1.25 1.25
          l 1.25 -1.25
        m -2.75 0.25
      m 0 0.03

      m 3 3

      m 0.03 0
        m 0.25 -0.25
          l -1.25 -1.25
          l 1.25 -1.25
        m -0.25 2.75
      m -0.03 0

      m 0 0.03
        m -0.25 0.25
          l -1.25 -1.25
          l -1.25 1.25" stroke-width="0.25" fill="none" />

    <path id="node-path" d="
      M 0 0 m 1 1

      l 3 3
      m 0 -3
      l -3 3" stroke-width="0.6" fill="none" />
  </defs>
  <g stroke="rgb(65, 105, 225)">
    <use xlink:href="#root-path" id="destroyed-root" class="mark" stroke="rgba(128, 128, 128, 0.4)" />
    <use xlink:href="#root-path" id="root" class="mark" />
    <use xlink:href="#node-path" id="disabled-node" class="mark" stroke="rgb(128, 128, 128)" />
    <use xlink:href="#node-path" id="destroyed-node" class="mark" stroke="rgba(128, 128, 128, 0.4)" />
    <use xlink:href="#node-path" id="node" class="default mark" />
  </g>
  <style>
    .mark:not(.default):not(:target),
    .mark:target~.default.mark {
      display: none;
    }
  </style>
</svg>
